<svg version="1.1" id="Layer_1" xmlns="http://www.w3.org/2000/svg" xmlns:xlink="http://www.w3.org/1999/xlink" x="0px" y="0px"
	 width="100%" viewBox="0 0 1024 1024" enable-background="new 0 0 1024 1024" xml:space="preserve">
<path fill="#000000" opacity="1.000000" stroke="none" 
	d="
M514.951660,185.160217 
	C528.144348,207.754776 524.038818,229.829605 503.711578,245.709457 
	C500.638489,248.110184 500.037903,249.964233 501.841064,253.543198 
	C515.106384,279.872406 529.026917,305.902740 539.869446,333.378967 
	C545.980164,348.864258 551.838745,364.453217 554.486877,381.019348 
	C554.713135,382.434418 554.949219,383.992218 556.312073,385.004456 
	C558.685120,384.707214 558.916077,382.580627 559.534729,381.020844 
	C573.969177,344.628571 589.804810,308.829346 605.374390,272.919922 
	C607.346436,268.371613 606.869385,266.206543 602.257751,263.676300 
	C579.396118,251.132797 567.228821,224.849258 571.961548,199.345947 
	C576.607666,174.309387 596.467651,154.804855 622.412109,151.160248 
	C664.632812,145.229187 695.307678,179.139130 693.198425,215.349091 
	C691.389893,246.395203 664.761902,271.274109 633.592773,271.339417 
	C632.092773,271.342560 630.582764,271.445557 629.094849,271.309875 
	C625.653564,270.996124 624.094482,272.523193 623.224121,275.882843 
	C615.462341,305.845032 607.539917,335.765625 599.670593,365.699951 
	C593.197876,390.321960 586.728699,414.944885 580.273865,439.571594 
	C579.870300,441.111328 578.664734,442.854675 580.398193,444.181702 
	C582.222778,445.578522 583.866089,444.200195 585.430054,443.299347 
	C629.463501,417.935822 673.504883,392.586212 717.507324,367.169037 
	C723.795410,363.536835 723.706238,363.382629 720.860352,356.923401 
	C707.687378,327.024780 724.583435,294.533569 756.609192,288.178131 
	C782.692017,283.002045 809.373352,302.300415 813.422424,328.471069 
	C817.787659,356.684937 798.056763,383.765686 766.333008,384.829681 
	C755.835388,385.181732 745.707642,382.676544 737.165405,376.188538 
	C732.981812,373.011047 729.950012,373.214508 725.736694,376.275024 
	C696.302979,397.655762 668.862976,421.413147 641.940491,445.805695 
	C636.017395,451.172119 630.067993,456.509766 624.171082,461.904755 
	C622.866943,463.097778 621.134949,464.025269 620.882629,466.364624 
	C624.036743,468.516388 627.835205,468.336304 631.318420,468.536713 
	C660.623779,470.223083 688.885864,476.884705 716.620178,486.096802 
	C724.357788,488.666840 731.997131,491.541809 739.629700,494.414795 
	C743.058716,495.705536 745.131165,495.679871 746.860474,491.543396 
	C757.646545,465.744415 783.200012,451.505951 812.011780,454.865143 
	C837.007385,457.779358 858.420410,478.161407 862.892944,504.403259 
	C869.603577,543.776794 838.942322,574.966980 804.216980,575.581238 
	C776.168274,576.077515 743.368408,554.243774 742.101746,514.889587 
	C741.999084,511.699158 741.322632,509.762482 737.663574,508.957703 
	C678.531250,495.951752 621.145752,499.817810 567.631531,529.698364 
	C529.863281,550.786926 501.178558,581.324768 484.756500,621.992920 
	C476.542419,642.334473 474.841736,663.895813 474.886139,685.741821 
	C474.948853,716.583801 485.379608,744.404968 497.960815,771.835571 
	C511.917358,802.264893 526.424377,832.450562 539.245911,863.392212 
	C540.558838,866.560669 541.656006,869.818604 543.126282,873.768433 
	C424.260223,873.768433 306.406189,873.768433 188.544357,873.768433 
	C187.461136,870.786926 189.208191,868.685852 190.219482,866.540222 
	C201.137848,843.374573 217.830963,825.093567 238.274994,810.008850 
	C254.925385,797.723328 273.117340,787.808105 290.207092,776.194641 
	C306.799347,764.919250 322.852783,753.026062 335.357574,737.075623 
	C346.523254,722.833313 354.052673,706.830872 354.255707,688.577148 
	C354.485565,667.910706 345.870911,650.546387 319.432037,650.356445 
	C294.939117,650.180420 270.488312,649.662781 246.288666,645.346313 
	C244.652328,645.054443 243.028763,644.671875 241.418121,644.258118 
	C223.236572,639.587402 215.511597,627.022583 221.515457,609.285034 
	C224.862259,599.397400 226.171539,590.901489 218.274368,582.887146 
	C217.492599,582.093750 217.137070,580.863586 216.638916,579.810120 
	C212.902725,571.908875 215.172180,567.088318 223.696381,564.974731 
	C227.086624,564.134155 230.517624,563.453125 233.941315,562.754700 
	C235.413864,562.454346 236.906372,562.275940 237.906967,560.858765 
	C237.951004,558.856934 236.223190,558.170654 235.003342,557.166748 
	C232.302246,554.943787 229.416412,552.935242 226.806000,550.614197 
	C219.780151,544.367126 220.080643,539.598145 227.798843,534.285461 
	C233.378830,530.444641 238.257706,526.057556 240.848755,519.562256 
	C242.645737,515.057495 241.986328,511.527130 237.538666,508.921204 
	C234.384491,507.073090 231.215897,505.138123 228.428162,502.796204 
	C218.731155,494.649719 219.148651,482.132538 229.454803,474.773407 
	C239.786423,467.396149 251.271439,461.926788 262.382965,455.886871 
	C274.913177,449.075867 283.251007,439.547272 287.193024,425.570831 
	C292.409088,407.077332 299.463562,389.285919 311.492310,373.880951 
	C316.760925,367.133514 322.770081,361.189087 329.372314,355.795868 
	C330.399261,354.957001 331.440552,354.148956 333.097626,354.092468 
	C335.977051,357.829376 337.040649,362.437897 338.884918,366.636017 
	C349.393738,390.557495 364.446930,411.459625 381.690216,430.841064 
	C395.302368,446.141144 406.687469,462.553192 409.800140,483.339691 
	C413.127838,505.562408 412.039307,527.253418 400.082916,547.147827 
	C395.859375,554.175476 389.879028,559.367920 381.979095,562.158081 
	C378.088165,563.532349 374.564331,563.065308 370.953217,561.131897 
	C360.402100,555.482666 352.167786,556.293762 344.472595,563.520142 
	C338.229309,569.383118 337.029388,579.337830 341.399811,589.013245 
	C345.559113,598.221252 351.995911,601.915955 362.955750,599.675598 
	C391.802948,593.778809 416.768738,581.057983 433.773743,556.014771 
	C443.867798,541.149353 447.383179,524.050842 448.696259,506.387787 
	C451.491730,468.784668 436.479645,438.124939 412.298340,410.671844 
	C397.912689,394.339691 381.898315,379.329834 371.183289,359.907196 
	C361.517487,342.386566 352.546844,324.536011 343.828369,306.544098 
	C340.922821,300.548126 337.834900,294.618256 335.349884,288.448853 
	C333.745575,284.465942 331.770477,284.228882 328.144775,285.657532 
	C312.853058,291.682892 297.711975,290.877777 283.276215,283.137756 
	C263.546997,272.559601 252.586563,250.700195 255.893768,229.613464 
	C259.474060,206.785431 275.553314,189.212296 298.234772,185.325653 
	C320.707886,181.474731 341.316498,189.042526 354.307251,210.315918 
	C366.184082,229.765244 364.324402,253.822250 349.743073,270.839813 
	C346.832764,274.236389 348.178040,275.778870 350.655853,278.073151 
	C380.882812,306.061798 412.303375,332.597443 445.788910,356.639923 
	C457.309906,364.911957 468.386047,373.701782 478.067230,384.157074 
	C487.163452,393.980621 493.867523,405.126373 497.727264,417.981018 
	C498.259338,419.753052 498.205170,422.501007 500.863922,422.476501 
	C503.459137,422.452576 503.394989,419.744263 504.020599,417.972992 
	C509.850464,401.467560 514.848999,384.805878 515.912781,367.134247 
	C517.067993,347.944672 514.305786,329.326385 509.164581,310.930115 
	C504.125366,292.898773 496.608704,275.836792 489.173401,258.725128 
	C487.474396,254.814972 485.080322,253.885834 481.015900,254.077209 
	C454.570557,255.322525 433.196533,236.074768 432.738892,210.871017 
	C432.387970,191.544739 444.469360,174.102646 462.575317,167.795761 
	C481.825684,161.090225 501.936310,167.669144 514.951660,185.160217 
z"/>
<path fill="#000000" opacity="1.000000" stroke="none" 
	d="
M723.562622,661.519897 
	C750.302368,700.576538 727.954590,750.903870 681.452759,757.116882 
	C656.762756,760.415649 630.767334,746.273010 619.606140,723.469788 
	C608.378235,700.530273 613.166626,672.010559 631.234802,654.208862 
	C637.678223,647.860474 637.689758,647.851868 632.344788,640.670776 
	C622.400513,627.310303 612.842102,613.633301 600.421387,602.326660 
	C590.204895,593.026489 589.920410,592.996765 581.057861,603.374207 
	C571.180969,614.939514 562.576050,627.346863 555.570618,640.893555 
	C546.074829,659.255920 545.999146,677.925537 553.058350,696.958374 
	C561.490967,719.694336 573.954102,740.473083 584.757202,762.057068 
	C588.412048,769.359436 591.809692,776.766907 595.007263,784.283630 
	C605.950256,810.007690 600.590454,832.742920 582.582458,853.176941 
	C579.395264,856.793518 575.921021,860.175293 572.401917,863.476379 
	C568.286255,867.337219 567.636963,867.183044 565.468811,862.191772 
	C550.806580,828.437073 536.215027,794.651550 521.516663,760.912598 
	C514.197815,744.112732 507.039581,727.302734 503.546600,709.149170 
	C496.470367,672.373291 504.238037,639.093689 526.649841,609.207397 
	C547.255554,581.729553 571.959839,559.149780 603.624634,544.809570 
	C608.210510,542.732727 610.211670,543.502380 612.294250,548.039856 
	C625.424438,576.647156 638.924744,605.084717 652.018799,633.708252 
	C654.114624,638.289795 656.629333,639.318542 661.294861,638.405701 
	C686.536804,633.466858 707.172791,641.366638 723.562622,661.519897 
z"/>
<path fill="#000000" opacity="1.000000" stroke="none" 
	d="
M693.980713,520.039062 
	C702.537659,520.708984 710.027283,522.937439 716.564453,528.131165 
	C729.990723,538.798035 734.309021,556.604065 727.048340,572.224976 
	C719.972046,587.449097 703.284851,595.112549 685.575806,591.270935 
	C669.807800,587.850342 658.215149,572.912598 657.553833,556.641296 
	C656.818970,538.561096 670.778442,521.398499 690.091919,520.541687 
	C691.249146,520.490356 692.396179,520.209656 693.980713,520.039062 
z"/>
<path fill="#000000" opacity="1.000000" stroke="none" 
	d="
M418.502594,259.047089 
	C428.967072,256.646759 438.122467,258.508514 446.016357,265.267426 
	C455.798920,273.643494 458.683594,286.771576 453.514435,298.401123 
	C448.217255,310.318756 435.773651,317.638306 423.301483,316.172821 
	C409.431061,314.543030 399.355560,305.055023 396.930573,291.339691 
	C394.876709,279.723358 401.337097,267.363098 412.594849,261.503296 
	C414.360352,260.584320 416.264282,259.931183 418.502594,259.047089 
z"/>
<path fill="#000000" opacity="1.000000" stroke="none" 
	d="
M695.526184,327.180664 
	C689.628540,339.857849 678.299194,347.024902 666.599854,345.755737 
	C651.795227,344.149689 642.261963,336.342285 639.361694,322.798553 
	C637.008301,311.808441 640.168701,302.265289 648.805847,295.004944 
	C658.009094,287.268738 668.429810,285.553009 679.567017,290.432343 
	C690.248901,295.112274 696.153015,303.430573 697.248840,315.041656 
	C697.626953,319.047638 697.237976,323.027588 695.526184,327.180664 
z"/>
<path fill="#000000" opacity="1.000000" stroke="none" 
	d="
M216.706528,369.614441 
	C203.417953,364.749420 195.311005,351.999390 197.260666,339.486664 
	C199.584167,324.574646 210.274643,314.225342 223.958084,313.641235 
	C239.218185,312.989838 251.987762,321.766815 254.888062,335.724976 
	C260.174622,361.167267 235.896652,376.720551 216.706528,369.614441 
z"/>
<path fill="#000000" opacity="1.000000" stroke="none" 
	d="
M776.942871,593.753723 
	C796.568481,597.216980 805.377075,617.294250 799.616028,632.006470 
	C793.937256,646.508423 778.606018,654.097046 763.395996,649.777832 
	C749.115845,645.722717 740.782471,631.207764 743.788025,615.625061 
	C746.530029,601.408691 760.575806,592.001282 776.942871,593.753723 
z"/>
</svg>