<svg version="1.1" id="Layer_1" xmlns="http://www.w3.org/2000/svg" xmlns:xlink="http://www.w3.org/1999/xlink" x="0px" y="0px"
	 width="100%" viewBox="0 0 1024 1024" enable-background="new 0 0 1024 1024" xml:space="preserve">
<path fill="#FEFEFE" opacity="1.000000" stroke="none" 
	d="
M678.000000,1025.000000 
	C452.000000,1025.000000 226.500000,1025.000000 1.000000,1025.000000 
	C1.000000,683.666687 1.000000,342.333344 1.000000,1.000000 
	C342.333344,1.000000 683.666687,1.000000 1025.000000,1.000000 
	C1025.000000,342.333344 1025.000000,683.666687 1025.000000,1025.000000 
	C909.500000,1025.000000 794.000000,1025.000000 678.000000,1025.000000 
M578.974915,446.980316 
	C578.974915,446.980316 579.030762,447.020966 578.919067,446.216400 
	C593.520020,387.476959 608.121033,328.737549 622.682800,270.155670 
	C660.513367,274.098785 688.242615,247.475449 691.690491,216.906693 
	C694.845032,188.938995 675.803894,160.730530 647.586914,152.837875 
	C618.482422,144.696976 588.010986,159.317078 575.821045,187.258286 
	C570.135254,200.291031 569.096191,213.661499 573.290344,227.262238 
	C579.150452,246.265152 591.747803,259.226379 610.565002,267.074768 
	C592.211975,308.233521 574.009705,349.054108 555.807434,389.874695 
	C545.348145,339.140961 519.875732,294.876526 499.176636,248.784348 
	C523.481995,232.749466 526.388000,207.344177 516.230225,188.596237 
	C506.354523,170.369003 483.686432,161.174652 463.943268,167.576767 
	C443.865173,174.087479 430.631348,194.452728 433.279449,214.830795 
	C434.686127,225.655746 439.380371,234.844254 447.417969,242.226974 
	C459.076630,252.935730 472.981995,255.650818 488.489807,252.928513 
	C493.959045,268.301056 499.383942,283.317383 504.648132,298.389862 
	C518.788452,338.876495 519.544189,379.632263 506.867615,420.611542 
	C504.372498,428.677338 501.416443,436.528687 494.678406,443.922424 
	C495.077515,441.234711 495.184479,439.809692 495.509888,438.436462 
	C497.813507,428.714844 496.597717,419.387573 493.307556,410.000610 
	C486.093445,389.418488 472.290710,374.547668 454.515594,362.552216 
	C422.714996,341.091797 392.288452,317.821899 364.120941,291.704376 
	C357.938690,285.972107 351.910797,280.073364 345.835449,274.273834 
	C367.210236,250.154037 362.920532,218.535950 345.135315,200.936203 
	C325.773193,181.775986 297.735535,179.739609 276.465515,196.051041 
	C255.838593,211.869278 250.208038,240.281967 263.045776,262.872559 
	C274.574280,283.159332 303.245850,299.170197 335.837433,282.268433 
	C337.148743,285.697815 338.538422,289.071167 339.738464,292.510681 
	C353.462189,331.846222 373.744598,367.207336 402.130981,397.953613 
	C411.588013,408.196899 419.980530,419.513062 428.103882,430.878937 
	C445.256744,454.878357 454.001221,481.310944 450.104767,511.254303 
	C443.572601,561.452271 409.865295,591.921448 362.923218,600.471069 
	C351.489258,602.553528 342.472137,595.988220 339.977203,584.674316 
	C339.198059,581.140991 338.902466,577.396545 339.064392,573.779114 
	C339.630707,561.126282 346.075745,555.736450 358.679657,557.416504 
	C364.278503,558.162781 369.801697,559.505249 375.340668,560.665466 
	C383.116486,562.294250 389.542328,559.970642 394.528778,553.935913 
	C396.740509,551.259216 398.918213,548.389771 400.351593,545.259827 
	C414.861908,513.574402 414.397064,482.084625 396.675537,451.973114 
	C389.908356,440.474579 380.553497,430.392731 371.716766,420.240753 
	C353.998871,399.885803 339.411926,378.040253 335.142456,350.250214 
	C333.841339,351.175598 332.634796,351.954041 331.515015,352.841888 
	C309.117065,370.600189 295.201630,393.480682 291.162872,421.822174 
	C290.085510,429.382416 286.369019,434.086884 280.177673,438.322693 
	C274.776886,434.617554 269.216675,430.803070 263.304749,426.747284 
	C259.409241,437.378540 269.110413,440.403687 273.544891,446.717957 
	C269.821838,449.895325 266.440186,453.416077 262.468048,456.044586 
	C253.030884,462.289398 243.230087,467.982086 233.731369,474.137268 
	C221.618103,481.986755 220.779495,493.107086 231.446838,503.048218 
	C234.610901,505.996857 238.156738,508.534149 241.345047,511.458923 
	C246.173035,515.887817 246.432190,519.244080 241.632294,523.680969 
	C237.127716,527.844849 232.068130,531.417053 227.182556,535.157837 
	C221.073486,539.835510 220.264420,543.802185 224.802155,549.986572 
	C226.748154,552.638794 229.254974,554.928833 231.744461,557.112671 
	C233.048782,558.256897 234.866455,558.815918 236.999084,559.923157 
	C230.817551,562.837036 226.680786,564.269104 223.112793,566.579529 
	C216.215805,571.045471 215.192734,576.911499 219.759079,583.647644 
	C221.810806,586.674255 224.052429,589.600586 226.466736,592.344666 
	C228.736145,594.924133 228.987244,596.970337 227.189560,600.231506 
	C224.490555,605.127747 222.168060,610.437378 220.860947,615.854858 
	C217.522659,629.690674 224.196106,640.424988 238.052750,643.710327 
	C244.832138,645.317627 251.808456,646.459534 258.755310,646.928345 
	C281.354462,648.453857 303.974335,649.714111 326.599884,650.789673 
	C338.995453,651.378967 346.796661,657.583923 350.682312,669.054932 
	C354.741699,681.038757 355.083466,693.281555 352.245941,705.529663 
	C347.667786,725.291260 335.745667,740.575500 320.269165,752.609985 
	C300.834991,767.721985 280.430420,781.600769 260.250458,795.734497 
	C241.539886,808.839050 222.238876,821.309204 207.959900,839.521667 
	C199.918076,849.778809 193.130432,861.019226 185.053314,872.880737 
	C305.182037,872.880737 423.371582,872.880737 542.208069,872.880737 
	C541.017029,870.140625 540.071228,867.877502 539.057373,865.645203 
	C524.466492,833.518250 510.279480,801.199158 495.140472,769.332397 
	C482.596741,742.928589 472.100586,716.475769 473.130676,686.293213 
	C473.904602,663.617371 475.014435,641.171326 484.405853,620.287048 
	C513.891052,554.718689 566.330750,518.159790 635.321106,504.296173 
	C669.603699,497.407104 704.009277,501.747650 738.058411,508.525269 
	C741.929077,509.295685 743.093811,510.571045 743.061218,514.562988 
	C742.844788,541.067871 759.193665,563.738403 784.021423,571.844055 
	C809.066528,580.020752 835.083679,571.546753 851.006470,550.026550 
	C869.171509,525.475891 865.191956,490.511841 841.893250,469.958130 
	C819.149963,449.894379 783.202515,450.358093 761.912415,471.860931 
	C754.935486,478.907684 750.014648,487.990021 743.581360,496.937195 
	C703.388367,482.782471 661.931458,466.879059 616.235901,468.477478 
	C617.155640,466.991547 618.357910,466.174194 619.442871,465.223083 
	C634.225708,452.264282 648.716064,438.954590 663.829285,426.394012 
	C685.221375,408.614990 707.097961,391.419678 728.688599,373.877777 
	C731.395508,371.678406 733.139099,371.922333 735.922058,374.032990 
	C751.851196,386.114044 769.421387,388.018250 787.204346,379.443329 
	C805.373047,370.682434 814.126953,355.158630 814.046387,335.006042 
	C813.938049,307.911438 789.536865,286.079193 761.902527,288.057892 
	C734.771545,290.000610 713.563538,316.006134 718.000183,342.636292 
	C719.175598,349.691833 722.433167,356.400482 724.873474,363.682526 
	C724.877625,363.679626 724.246521,364.195374 723.549866,364.597504 
	C676.525696,391.742981 629.499390,418.884521 582.447144,445.981232 
	C581.424316,446.570282 580.099670,446.635254 578.974915,446.980316 
M614.246033,698.415649 
	C615.498901,722.942444 627.033447,741.135254 649.301758,751.205139 
	C672.152893,761.538574 694.572632,759.238098 713.888000,742.740784 
	C731.602661,727.610596 738.610291,707.691650 733.196106,684.738098 
	C727.418091,660.241760 711.317383,645.347839 686.979553,639.447083 
	C676.230042,636.840820 665.509033,637.955200 654.608643,641.354614 
	C639.549011,608.063782 624.625977,575.074890 609.662537,541.996704 
	C608.574158,542.395386 607.770935,542.617249 607.030762,542.971069 
	C574.528870,558.507751 546.993591,580.123962 526.723572,610.144470 
	C499.125916,651.017395 493.908722,694.365234 513.612000,740.141479 
	C525.921814,768.740784 538.122681,797.386963 550.395996,826.002014 
	C555.965393,838.986877 561.592102,851.947144 567.400879,865.400391 
	C574.461304,861.708740 579.860840,856.618530 584.558533,850.802246 
	C604.422241,826.208374 605.259399,792.772644 587.202026,765.083923 
	C573.452454,744.000488 561.348328,722.000061 551.175232,698.926941 
	C541.488159,676.956055 543.166870,655.888611 556.397949,636.210876 
	C565.297241,622.975586 575.524414,610.630310 585.233459,597.945007 
	C586.888977,595.781982 588.927063,593.911804 590.991638,591.687317 
	C608.354797,610.264282 625.258789,628.349915 642.165222,646.438232 
	C621.305054,665.537537 614.730164,677.639465 614.246033,698.415649 
M663.348328,538.941467 
	C655.711365,553.686279 657.519836,569.044556 668.242676,580.504761 
	C678.801697,591.789917 695.455200,595.070984 709.494751,588.632446 
	C723.063599,582.409790 731.296326,568.050415 729.988342,552.887878 
	C728.731750,538.322449 717.671387,525.817078 702.723083,522.060547 
	C687.275574,518.178589 673.155701,524.071411 663.348328,538.941467 
M421.046906,259.123627 
	C419.758057,259.451599 418.457367,259.739319 417.182129,260.113739 
	C403.463745,264.142059 394.478149,278.880981 397.481995,292.406372 
	C400.952789,308.034393 415.081024,317.492798 431.248322,315.011780 
	C445.083893,312.888611 455.328278,299.279114 454.329559,285.027588 
	C453.421753,272.074036 441.600769,256.934998 421.046906,259.123627 
M746.853943,634.498657 
	C747.645325,635.769043 748.360901,637.094543 749.239807,638.301086 
	C756.420837,648.158142 770.176697,652.226135 781.892456,647.992126 
	C793.664062,643.738037 801.795105,631.925476 800.698547,620.217346 
	C799.537964,607.826416 793.304565,598.937744 781.416504,594.747192 
	C769.869812,590.677124 759.529236,593.510681 751.364868,602.343750 
	C742.880188,611.523438 741.378967,622.286072 746.853943,634.498657 
M668.514893,345.084351 
	C684.805847,344.683350 697.036377,332.588348 696.863342,317.050079 
	C696.688171,301.318878 684.113220,288.524139 668.756897,288.452271 
	C653.591125,288.381348 640.667908,300.876404 640.154114,316.107361 
	C639.626526,331.751648 651.479492,344.262726 668.514893,345.084351 
M247.680725,362.170959 
	C248.710159,360.864288 249.891800,359.649445 250.744598,358.236176 
	C256.664581,348.425537 257.183838,338.360748 251.173187,328.504089 
	C245.125458,318.586670 236.027023,313.530762 224.354446,314.617889 
	C211.931244,315.774994 201.934265,325.427765 199.387268,337.762604 
	C197.110245,348.789978 202.688965,360.986389 212.637268,366.730225 
	C224.122299,373.361267 236.953888,371.860870 247.680725,362.170959 
z"/>
<path fill="#E8650C" opacity="1.000000" stroke="none" 
	d="
M578.915771,446.944641 
	C580.099670,446.635254 581.424316,446.570282 582.447144,445.981232 
	C629.499390,418.884521 676.525696,391.742981 723.549866,364.597504 
	C724.246521,364.195374 724.877625,363.679626 724.873474,363.682526 
	C722.433167,356.400482 719.175598,349.691833 718.000183,342.636292 
	C713.563538,316.006134 734.771545,290.000610 761.902527,288.057892 
	C789.536865,286.079193 813.938049,307.911438 814.046387,335.006042 
	C814.126953,355.158630 805.373047,370.682434 787.204346,379.443329 
	C769.421387,388.018250 751.851196,386.114044 735.922058,374.032990 
	C733.139099,371.922333 731.395508,371.678406 728.688599,373.877777 
	C707.097961,391.419678 685.221375,408.614990 663.829285,426.394012 
	C648.716064,438.954590 634.225708,452.264282 619.442871,465.223083 
	C618.357910,466.174194 617.155640,466.991547 616.235901,468.477478 
	C661.931458,466.879059 703.388367,482.782471 743.581360,496.937195 
	C750.014648,487.990021 754.935486,478.907684 761.912415,471.860931 
	C783.202515,450.358093 819.149963,449.894379 841.893250,469.958130 
	C865.191956,490.511841 869.171509,525.475891 851.006470,550.026550 
	C835.083679,571.546753 809.066528,580.020752 784.021423,571.844055 
	C759.193665,563.738403 742.844788,541.067871 743.061218,514.562988 
	C743.093811,510.571045 741.929077,509.295685 738.058411,508.525269 
	C704.009277,501.747650 669.603699,497.407104 635.321106,504.296173 
	C566.330750,518.159790 513.891052,554.718689 484.405853,620.287048 
	C475.014435,641.171326 473.904602,663.617371 473.130676,686.293213 
	C472.100586,716.475769 482.596741,742.928589 495.140472,769.332397 
	C510.279480,801.199158 524.466492,833.518250 539.057373,865.645203 
	C540.071228,867.877502 541.017029,870.140625 542.208069,872.880737 
	C423.371582,872.880737 305.182037,872.880737 185.053314,872.880737 
	C193.130432,861.019226 199.918076,849.778809 207.959900,839.521667 
	C222.238876,821.309204 241.539886,808.839050 260.250458,795.734497 
	C280.430420,781.600769 300.834991,767.721985 320.269165,752.609985 
	C335.745667,740.575500 347.667786,725.291260 352.245941,705.529663 
	C355.083466,693.281555 354.741699,681.038757 350.682312,669.054932 
	C346.796661,657.583923 338.995453,651.378967 326.599884,650.789673 
	C303.974335,649.714111 281.354462,648.453857 258.755310,646.928345 
	C251.808456,646.459534 244.832138,645.317627 238.052750,643.710327 
	C224.196106,640.424988 217.522659,629.690674 220.860947,615.854858 
	C222.168060,610.437378 224.490555,605.127747 227.189560,600.231506 
	C228.987244,596.970337 228.736145,594.924133 226.466736,592.344666 
	C224.052429,589.600586 221.810806,586.674255 219.759079,583.647644 
	C215.192734,576.911499 216.215805,571.045471 223.112793,566.579529 
	C226.680786,564.269104 230.817551,562.837036 236.999084,559.923157 
	C234.866455,558.815918 233.048782,558.256897 231.744461,557.112671 
	C229.254974,554.928833 226.748154,552.638794 224.802155,549.986572 
	C220.264420,543.802185 221.073486,539.835510 227.182556,535.157837 
	C232.068130,531.417053 237.127716,527.844849 241.632294,523.680969 
	C246.432190,519.244080 246.173035,515.887817 241.345047,511.458923 
	C238.156738,508.534149 234.610901,505.996857 231.446838,503.048218 
	C220.779495,493.107086 221.618103,481.986755 233.731369,474.137268 
	C243.230087,467.982086 253.030884,462.289398 262.468048,456.044586 
	C266.440186,453.416077 269.821838,449.895325 273.544891,446.717957 
	C269.110413,440.403687 259.409241,437.378540 263.304749,426.747284 
	C269.216675,430.803070 274.776886,434.617554 280.177673,438.322693 
	C286.369019,434.086884 290.085510,429.382416 291.162872,421.822174 
	C295.201630,393.480682 309.117065,370.600189 331.515015,352.841888 
	C332.634796,351.954041 333.841339,351.175598 335.142456,350.250214 
	C339.411926,378.040253 353.998871,399.885803 371.716766,420.240753 
	C380.553497,430.392731 389.908356,440.474579 396.675537,451.973114 
	C414.397064,482.084625 414.861908,513.574402 400.351593,545.259827 
	C398.918213,548.389771 396.740509,551.259216 394.528778,553.935913 
	C389.542328,559.970642 383.116486,562.294250 375.340668,560.665466 
	C369.801697,559.505249 364.278503,558.162781 358.679657,557.416504 
	C346.075745,555.736450 339.630707,561.126282 339.064392,573.779114 
	C338.902466,577.396545 339.198059,581.140991 339.977203,584.674316 
	C342.472137,595.988220 351.489258,602.553528 362.923218,600.471069 
	C409.865295,591.921448 443.572601,561.452271 450.104767,511.254303 
	C454.001221,481.310944 445.256744,454.878357 428.103882,430.878937 
	C419.980530,419.513062 411.588013,408.196899 402.130981,397.953613 
	C373.744598,367.207336 353.462189,331.846222 339.738464,292.510681 
	C338.538422,289.071167 337.148743,285.697815 335.837433,282.268433 
	C303.245850,299.170197 274.574280,283.159332 263.045776,262.872559 
	C250.208038,240.281967 255.838593,211.869278 276.465515,196.051041 
	C297.735535,179.739609 325.773193,181.775986 345.135315,200.936203 
	C362.920532,218.535950 367.210236,250.154037 345.835449,274.273834 
	C351.910797,280.073364 357.938690,285.972107 364.120941,291.704376 
	C392.288452,317.821899 422.714996,341.091797 454.515594,362.552216 
	C472.290710,374.547668 486.093445,389.418488 493.307556,410.000610 
	C496.597717,419.387573 497.813507,428.714844 495.509888,438.436462 
	C495.184479,439.809692 495.077515,441.234711 494.678406,443.922424 
	C501.416443,436.528687 504.372498,428.677338 506.867615,420.611542 
	C519.544189,379.632263 518.788452,338.876495 504.648132,298.389862 
	C499.383942,283.317383 493.959045,268.301056 488.489807,252.928513 
	C472.981995,255.650818 459.076630,252.935730 447.417969,242.226974 
	C439.380371,234.844254 434.686127,225.655746 433.279449,214.830795 
	C430.631348,194.452728 443.865173,174.087479 463.943268,167.576767 
	C483.686432,161.174652 506.354523,170.369003 516.230225,188.596237 
	C526.388000,207.344177 523.481995,232.749466 499.176636,248.784348 
	C519.875732,294.876526 545.348145,339.140961 555.807434,389.874695 
	C574.009705,349.054108 592.211975,308.233521 610.565002,267.074768 
	C591.747803,259.226379 579.150452,246.265152 573.290344,227.262238 
	C569.096191,213.661499 570.135254,200.291031 575.821045,187.258286 
	C588.010986,159.317078 618.482422,144.696976 647.586914,152.837875 
	C675.803894,160.730530 694.845032,188.938995 691.690491,216.906693 
	C688.242615,247.475449 660.513367,274.098785 622.682800,270.155670 
	C608.121033,328.737549 593.520020,387.476959 578.784729,446.680237 
	C578.743408,447.290771 578.836365,447.437469 578.929382,447.584167 
	C578.924866,447.371002 578.920288,447.157806 578.915771,446.944641 
z"/>
<path fill="#E8650C" opacity="1.000000" stroke="none" 
	d="
M614.249878,697.961182 
	C614.730164,677.639465 621.305054,665.537537 642.165222,646.438232 
	C625.258789,628.349915 608.354797,610.264282 590.991638,591.687317 
	C588.927063,593.911804 586.888977,595.781982 585.233459,597.945007 
	C575.524414,610.630310 565.297241,622.975586 556.397949,636.210876 
	C543.166870,655.888611 541.488159,676.956055 551.175232,698.926941 
	C561.348328,722.000061 573.452454,744.000488 587.202026,765.083923 
	C605.259399,792.772644 604.422241,826.208374 584.558533,850.802246 
	C579.860840,856.618530 574.461304,861.708740 567.400879,865.400391 
	C561.592102,851.947144 555.965393,838.986877 550.395996,826.002014 
	C538.122681,797.386963 525.921814,768.740784 513.612000,740.141479 
	C493.908722,694.365234 499.125916,651.017395 526.723572,610.144470 
	C546.993591,580.123962 574.528870,558.507751 607.030762,542.971069 
	C607.770935,542.617249 608.574158,542.395386 609.662537,541.996704 
	C624.625977,575.074890 639.549011,608.063782 654.608643,641.354614 
	C665.509033,637.955200 676.230042,636.840820 686.979553,639.447083 
	C711.317383,645.347839 727.418091,660.241760 733.196106,684.738098 
	C738.610291,707.691650 731.602661,727.610596 713.888000,742.740784 
	C694.572632,759.238098 672.152893,761.538574 649.301758,751.205139 
	C627.033447,741.135254 615.498901,722.942444 614.249878,697.961182 
z"/>
<path fill="#E7650D" opacity="1.000000" stroke="none" 
	d="
M663.550476,538.632996 
	C673.155701,524.071411 687.275574,518.178589 702.723083,522.060547 
	C717.671387,525.817078 728.731750,538.322449 729.988342,552.887878 
	C731.296326,568.050415 723.063599,582.409790 709.494751,588.632446 
	C695.455200,595.070984 678.801697,591.789917 668.242676,580.504761 
	C657.519836,569.044556 655.711365,553.686279 663.550476,538.632996 
z"/>
<path fill="#E8650D" opacity="1.000000" stroke="none" 
	d="
M421.488953,259.080322 
	C441.600769,256.934998 453.421753,272.074036 454.329559,285.027588 
	C455.328278,299.279114 445.083893,312.888611 431.248322,315.011780 
	C415.081024,317.492798 400.952789,308.034393 397.481995,292.406372 
	C394.478149,278.880981 403.463745,264.142059 417.182129,260.113739 
	C418.457367,259.739319 419.758057,259.451599 421.488953,259.080322 
z"/>
<path fill="#E7650D" opacity="1.000000" stroke="none" 
	d="
M746.681519,634.159607 
	C741.378967,622.286072 742.880188,611.523438 751.364868,602.343750 
	C759.529236,593.510681 769.869812,590.677124 781.416504,594.747192 
	C793.304565,598.937744 799.537964,607.826416 800.698547,620.217346 
	C801.795105,631.925476 793.664062,643.738037 781.892456,647.992126 
	C770.176697,652.226135 756.420837,648.158142 749.239807,638.301086 
	C748.360901,637.094543 747.645325,635.769043 746.681519,634.159607 
z"/>
<path fill="#E7640D" opacity="1.000000" stroke="none" 
	d="
M668.060181,345.083435 
	C651.479492,344.262726 639.626526,331.751648 640.154114,316.107361 
	C640.667908,300.876404 653.591125,288.381348 668.756897,288.452271 
	C684.113220,288.524139 696.688171,301.318878 696.863342,317.050079 
	C697.036377,332.588348 684.805847,344.683350 668.060181,345.083435 
z"/>
<path fill="#E7660E" opacity="1.000000" stroke="none" 
	d="
M247.435638,362.430420 
	C236.953888,371.860870 224.122299,373.361267 212.637268,366.730225 
	C202.688965,360.986389 197.110245,348.789978 199.387268,337.762604 
	C201.934265,325.427765 211.931244,315.774994 224.354446,314.617889 
	C236.027023,313.530762 245.125458,318.586670 251.173187,328.504089 
	C257.183838,338.360748 256.664581,348.425537 250.744598,358.236176 
	C249.891800,359.649445 248.710159,360.864288 247.435638,362.430420 
z"/>
<path fill="#FEFEFE" opacity="1.000000" stroke="none" 
	d="
M578.945312,446.962463 
	C578.920288,447.157806 578.924866,447.371002 578.929382,447.584167 
	C578.836365,447.437469 578.743408,447.290771 578.840576,447.082520 
	C579.030762,447.020966 578.974915,446.980316 578.945312,446.962463 
z"/>
</svg>